<svg width="219" height="108" viewBox="0 0 219 108" fill="none" xmlns="http://www.w3.org/2000/svg">
<g clip-path="url(#clip0_74_385)">
<path d="M71.2954 94.6716C70.905 95.0622 70.8989 95.7017 71.2929 96.0884C74.8624 99.5929 79.0679 102.371 83.6972 104.28C88.6347 106.315 93.9564 107.321 99.355 107.238C104.754 107.156 110.122 105.986 115.15 103.798C120.178 101.61 124.766 98.4461 128.649 94.4895C132.531 90.5329 135.632 85.8619 137.772 80.7464C139.911 75.631 141.047 70.1723 141.114 64.686C141.18 59.1996 140.177 53.7943 138.16 48.7823C136.269 44.0826 133.523 39.8162 130.065 36.1981C129.683 35.7992 129.055 35.8071 128.672 36.2045L100.245 65.7034L71.2954 94.6716Z" fill="#FFBE0B"/>
<path d="M146.437 13.686C146.857 13.2672 146.83 12.5753 146.371 12.2019C144.154 10.3989 138.095 5.62689 134.125 3.98382C129.19 1.94147 123.87 0.928659 118.471 1.00391C113.073 1.07915 107.703 2.24096 102.672 4.42221C97.6411 6.60346 93.049 9.76092 89.1608 13.7122C85.2727 17.6634 82.1658 22.3301 80.0194 27.4426C77.873 32.5552 76.7298 38.0122 76.6559 43.4984C76.5819 48.9847 77.5786 54.3914 79.5884 59.4062C81.4729 64.1085 84.2132 68.3787 87.6671 72.0016C88.0478 72.401 88.6759 72.3939 89.0594 71.997L117.526 42.5375L146.437 13.686Z" fill="#FFBE0B"/>
<path d="M10.5479 35.8984V75H2.49121V35.8984H10.5479ZM26.124 52.6025V58.8867H8.3457V52.6025H26.124ZM28.0039 35.8984V42.2095H8.3457V35.8984H28.0039ZM40.3574 33.75V75H32.5962V33.75H40.3574ZM45.5137 60.7666V60.2026C45.5137 58.0721 45.818 56.1117 46.4268 54.3213C47.0355 52.513 47.9217 50.9465 49.0854 49.6216C50.2492 48.2967 51.6815 47.2673 53.3823 46.5332C55.0832 45.7812 57.0347 45.4053 59.2368 45.4053C61.439 45.4053 63.3994 45.7812 65.1182 46.5332C66.8369 47.2673 68.2782 48.2967 69.4419 49.6216C70.6235 50.9465 71.5187 52.513 72.1274 54.3213C72.7362 56.1117 73.0405 58.0721 73.0405 60.2026V60.7666C73.0405 62.8792 72.7362 64.8397 72.1274 66.6479C71.5187 68.4383 70.6235 70.0049 69.4419 71.3477C68.2782 72.6725 66.8459 73.702 65.145 74.436C63.4442 75.1701 61.4927 75.5371 59.2905 75.5371C57.0884 75.5371 55.1279 75.1701 53.4092 74.436C51.7083 73.702 50.2671 72.6725 49.0854 71.3477C47.9217 70.0049 47.0355 68.4383 46.4268 66.6479C45.818 64.8397 45.5137 62.8792 45.5137 60.7666ZM53.248 60.2026V60.7666C53.248 61.984 53.3555 63.1209 53.5703 64.1772C53.7852 65.2336 54.1253 66.1646 54.5908 66.9702C55.0742 67.758 55.7008 68.3757 56.4707 68.8232C57.2406 69.2708 58.1805 69.4946 59.2905 69.4946C60.3647 69.4946 61.2868 69.2708 62.0566 68.8232C62.8265 68.3757 63.4442 67.758 63.9097 66.9702C64.3752 66.1646 64.7153 65.2336 64.9302 64.1772C65.1629 63.1209 65.2793 61.984 65.2793 60.7666V60.2026C65.2793 59.021 65.1629 57.911 64.9302 56.8726C64.7153 55.8162 64.3662 54.8853 63.8828 54.0796C63.4173 53.256 62.7996 52.6115 62.0298 52.146C61.2599 51.6805 60.3289 51.4478 59.2368 51.4478C58.1447 51.4478 57.2137 51.6805 56.4438 52.146C55.6919 52.6115 55.0742 53.256 54.5908 54.0796C54.1253 54.8853 53.7852 55.8162 53.5703 56.8726C53.3555 57.911 53.248 59.021 53.248 60.2026ZM86.0923 67.4805L92.1348 45.9424H97.0493L95.4648 54.4019L89.4224 75H85.3135L86.0923 67.4805ZM83.0308 45.9424L87.3545 67.4536L87.7573 75H82.9233L75.5649 45.9424H83.0308ZM102.582 67.1045L106.798 45.9424H114.291L106.932 75H102.125L102.582 67.1045ZM97.7207 45.9424L103.736 67.3193L104.569 75H100.433L94.3906 54.4287L92.8599 45.9424H97.7207ZM144.745 51.8237V58.1079H124.334V51.8237H144.745ZM126.725 35.8984V75H118.668V35.8984H126.725ZM150.492 35.8984V75H142.462V35.8984H150.492ZM174.205 68.0444V45.9424H181.939V75H174.662L174.205 68.0444ZM175.064 62.0825L177.347 62.0288C177.347 63.9624 177.123 65.7617 176.676 67.4268C176.228 69.0739 175.557 70.5062 174.662 71.7236C173.766 72.9232 172.639 73.8631 171.278 74.5435C169.917 75.2059 168.315 75.5371 166.471 75.5371C165.056 75.5371 163.749 75.3402 162.55 74.9463C161.368 74.5345 160.348 73.8989 159.488 73.0396C158.647 72.1623 157.984 71.0433 157.501 69.6826C157.035 68.304 156.803 66.6479 156.803 64.7144V45.9424H164.537V64.7681C164.537 65.6274 164.636 66.3525 164.833 66.9434C165.047 67.5342 165.343 68.0176 165.719 68.3936C166.095 68.7695 166.533 69.0381 167.035 69.1992C167.554 69.3604 168.127 69.4409 168.753 69.4409C170.347 69.4409 171.6 69.1187 172.513 68.4741C173.444 67.8296 174.098 66.9523 174.474 65.8423C174.868 64.7144 175.064 63.4611 175.064 62.0825ZM187.848 33.75H195.582V68.3398L194.803 75H187.848V33.75ZM213.978 60.1758V60.7397C213.978 62.9061 213.745 64.8934 213.28 66.7017C212.832 68.5099 212.134 70.0765 211.185 71.4014C210.236 72.7083 209.055 73.7288 207.64 74.4629C206.244 75.179 204.597 75.5371 202.699 75.5371C200.926 75.5371 199.387 75.179 198.08 74.4629C196.791 73.7467 195.707 72.7352 194.83 71.4282C193.953 70.1213 193.246 68.5905 192.708 66.8359C192.171 65.0814 191.769 63.1657 191.5 61.0889V59.8535C191.769 57.7767 192.171 55.861 192.708 54.1064C193.246 52.3519 193.953 50.8211 194.83 49.5142C195.707 48.2072 196.791 47.1956 198.08 46.4795C199.369 45.7633 200.89 45.4053 202.645 45.4053C204.561 45.4053 206.226 45.7723 207.64 46.5063C209.072 47.2225 210.254 48.243 211.185 49.5679C212.134 50.8748 212.832 52.4325 213.28 54.2407C213.745 56.0311 213.978 58.0094 213.978 60.1758ZM206.244 60.7397V60.1758C206.244 58.9941 206.154 57.8841 205.975 56.8457C205.814 55.7894 205.528 54.8674 205.116 54.0796C204.704 53.2739 204.14 52.6383 203.424 52.1729C202.726 51.7074 201.821 51.4746 200.711 51.4746C199.655 51.4746 198.76 51.6536 198.026 52.0117C197.292 52.3698 196.683 52.8711 196.2 53.5156C195.734 54.1602 195.385 54.93 195.152 55.8252C194.92 56.7025 194.776 57.6693 194.723 58.7256V62.2437C194.776 63.658 195.009 64.9113 195.421 66.0034C195.851 67.0776 196.495 67.9281 197.354 68.5547C198.232 69.1634 199.369 69.4678 200.765 69.4678C201.857 69.4678 202.761 69.2529 203.478 68.8232C204.194 68.3936 204.749 67.7848 205.143 66.9971C205.554 66.2093 205.841 65.2873 206.002 64.231C206.163 63.1567 206.244 61.993 206.244 60.7397Z" fill="#264654"/>
</g>
<defs>
<clipPath id="clip0_74_385">
<rect width="219" height="108" fill="white"/>
</clipPath>
</defs>
</svg>
